<?xml version="1.0" encoding="UTF-8"?><svg id="Layer_2" xmlns="http://www.w3.org/2000/svg" viewBox="0 0 1249.03 422.3"><defs><style>.cls-1{fill:#305c91;}</style></defs><g id="Layer_1-2"><path class="cls-1" d="M303.39,365.52v27.4h16.06c2.71,0,4.65.52,5.8,1.57,1.16,1.04,1.73,2.41,1.73,4.1s-.58,3-1.73,4.04c-1.15,1.05-3.09,1.57-5.8,1.57h-34.06c-2.71,0-4.65-.52-5.8-1.57-1.15-1.05-1.73-2.41-1.73-4.1s.58-3,1.73-4.04c1.16-1.05,3.09-1.57,5.8-1.57h6.71v-27.4h-5.39c-2.71,0-4.65-.52-5.8-1.57-1.16-1.05-1.73-2.41-1.73-4.1s.58-3,1.73-4.04c1.15-1.05,3.09-1.57,5.8-1.57h5.39v-4.29c0-4.92,1.84-9,5.53-12.24,3.69-3.25,9.03-4.87,16.04-4.87,3.12,0,6.72.28,10.81.85,4.09.57,6.71,1.37,7.87,2.39,1.15,1.03,1.73,2.35,1.73,3.96,0,1.72-.51,3.13-1.54,4.21-1.03,1.08-2.29,1.62-3.8,1.62-.7,0-1.74-.13-3.14-.38-4.66-.92-8.78-1.38-12.38-1.38s-6.32.56-7.73,1.68c-1.41,1.12-2.12,2.5-2.12,4.16v4.29h17.39c2.71,0,4.65.52,5.8,1.57,1.15,1.04,1.73,2.41,1.73,4.1s-.58,3-1.73,4.04c-1.16,1.05-3.09,1.57-5.8,1.57h-17.39Z"/><path class="cls-1" d="M402.63,380.16c0,4.33-1.2,8.52-3.6,12.57-2.4,4.05-5.98,7.28-10.73,9.68-4.75,2.4-9.71,3.6-14.88,3.6s-10.05-1.18-14.74-3.55c-4.7-2.37-8.27-5.58-10.73-9.66-2.46-4.07-3.69-8.33-3.69-12.76s1.25-8.94,3.74-13.29c2.49-4.35,6.08-7.77,10.76-10.26,4.68-2.49,9.56-3.74,14.66-3.74s10.08,1.28,14.83,3.82c4.75,2.55,8.33,5.98,10.76,10.29,2.42,4.31,3.63,8.74,3.63,13.29ZM391.35,380.21c0-3.63-1.3-6.97-3.91-10.01-3.56-4.11-8.23-6.16-14.03-6.16-5.1,0-9.35,1.63-12.76,4.9-3.41,3.27-5.12,7.04-5.12,11.33,0,3.52,1.72,6.81,5.17,9.87,3.45,3.06,7.68,4.59,12.71,4.59s9.32-1.53,12.76-4.59c3.45-3.06,5.17-6.37,5.17-9.93Z"/><path class="cls-1" d="M472.5,380.16c0,4.33-1.2,8.52-3.6,12.57-2.4,4.05-5.98,7.28-10.73,9.68-4.75,2.4-9.71,3.6-14.88,3.6s-10.05-1.18-14.74-3.55c-4.7-2.37-8.27-5.58-10.73-9.66-2.46-4.07-3.69-8.33-3.69-12.76s1.25-8.94,3.74-13.29c2.49-4.35,6.08-7.77,10.76-10.26,4.68-2.49,9.56-3.74,14.66-3.74s10.08,1.28,14.83,3.82c4.75,2.55,8.33,5.98,10.76,10.29,2.42,4.31,3.63,8.74,3.63,13.29ZM461.22,380.21c0-3.63-1.3-6.97-3.91-10.01-3.56-4.11-8.23-6.16-14.03-6.16-5.1,0-9.35,1.63-12.76,4.9-3.41,3.27-5.12,7.04-5.12,11.33,0,3.52,1.72,6.81,5.17,9.87,3.45,3.06,7.68,4.59,12.71,4.59s9.32-1.53,12.76-4.59c3.45-3.06,5.17-6.37,5.17-9.93Z"/><path class="cls-1" d="M538.96,332.85v60.08h1.93c2.68,0,4.6.52,5.78,1.57,1.17,1.04,1.76,2.41,1.76,4.1s-.58,3-1.73,4.04c-1.15,1.05-3.09,1.57-5.8,1.57h-13.2v-2.75c-2.57,1.5-5.25,2.64-8.06,3.41-2.81.77-5.71,1.15-8.72,1.15-8.47,0-15.29-2.45-20.47-7.34-5.17-4.9-7.76-10.99-7.76-18.29s2.71-14.14,8.14-19.53c5.43-5.39,12.05-8.09,19.86-8.09,2.93,0,5.81.45,8.64,1.35,2.82.9,5.61,2.25,8.36,4.04v-14.03h-1.93c-2.71,0-4.65-.52-5.8-1.57-1.15-1.04-1.73-2.39-1.73-4.04s.58-3.05,1.73-4.1c1.16-1.05,3.09-1.57,5.8-1.57h13.2ZM527.68,380.71c0-4.66-1.63-8.6-4.9-11.83-3.27-3.23-7.26-4.84-11.99-4.84s-8.67,1.61-11.94,4.84c-3.27,3.23-4.9,7.12-4.9,11.66,0,4.15,1.47,7.55,4.4,10.2,2.93,2.66,7.08,3.99,12.43,3.99s9.46-1.33,12.43-3.99c2.97-2.66,4.46-6,4.46-10.04Z"/><path class="cls-1" d="M595.13,367.45c-1.84-1.14-3.76-1.99-5.78-2.56-2.02-.57-4.13-.85-6.33-.85-4.37,0-7.83.72-10.4,2.14-1.14.63-1.71,1.3-1.71,2.04,0,.84.77,1.67,2.31,2.48,1.17.59,3.8,1.15,7.87,1.71,7.48,1.03,12.69,2.05,15.62,3.08,3.85,1.36,6.82,3.37,8.91,6.05,2.09,2.68,3.14,5.5,3.14,8.47,0,4.04-1.78,7.41-5.34,10.12-5.1,3.93-11.72,5.89-19.86,5.89-3.27,0-6.28-.28-9.05-.85-2.77-.57-5.31-1.4-7.62-2.5-.55.48-1.14.84-1.76,1.1-.62.26-1.27.38-1.93.38-1.76,0-3.16-.58-4.21-1.73-1.05-1.15-1.57-3.09-1.57-5.8v-3.8c0-2.71.52-4.65,1.57-5.81,1.05-1.15,2.41-1.73,4.1-1.73,1.36,0,2.49.38,3.41,1.13.92.75,1.63,2.05,2.15,3.88,1.72,1.47,3.8,2.58,6.22,3.33,2.42.75,5.21,1.13,8.36,1.13,5.17,0,9.19-.81,12.05-2.42,1.36-.81,2.04-1.65,2.04-2.53,0-1.47-.97-2.68-2.92-3.63-1.94-.95-5.96-1.76-12.05-2.42-9.06-.95-15.11-2.79-18.16-5.5-3.04-2.68-4.57-5.98-4.57-9.9s1.71-7.39,5.12-10.07c4.62-3.67,10.67-5.5,18.15-5.5,2.6,0,5.11.25,7.51.74,2.4.49,4.7,1.26,6.9,2.28.7-.51,1.35-.9,1.95-1.15.61-.26,1.16-.39,1.68-.39,1.54,0,2.82.58,3.85,1.73,1.03,1.15,1.54,3.09,1.54,5.8v2.75c0,2.46-.29,4.13-.88,5.01-1.17,1.69-2.77,2.53-4.79,2.53-1.36,0-2.55-.42-3.58-1.27-1.03-.84-1.69-1.96-1.98-3.36Z"/><path class="cls-1" d="M650.14,389.02h15.07l-16.23,30.59c-.95,1.8-2.15,2.7-3.58,2.7-.95,0-1.77-.31-2.45-.94-.68-.62-1.02-1.32-1.02-2.09,0-.55.13-1.3.38-2.25l7.81-28Z"/><path class="cls-1" d="M758.54,354.25v38.68h13.53c2.71,0,4.65.52,5.81,1.57,1.15,1.04,1.73,2.41,1.73,4.1s-.58,3-1.73,4.04-3.09,1.57-5.81,1.57h-38.35c-2.71,0-4.65-.52-5.8-1.57-1.15-1.05-1.73-2.41-1.73-4.1s.58-3,1.73-4.04c1.15-1.05,3.09-1.57,5.8-1.57h13.53v-27.4h-9.08c-2.68,0-4.6-.52-5.78-1.57s-1.76-2.41-1.76-4.1.58-3,1.73-4.04c1.15-1.05,3.09-1.57,5.8-1.57h20.36ZM757,332.85v11.94h-13.42v-11.94h13.42Z"/><path class="cls-1" d="M811.41,354.25v3.8c2.05-1.76,4.32-3.08,6.79-3.96,2.48-.88,5.16-1.32,8.06-1.32,6.67,0,11.96,2.07,15.84,6.22,3.08,3.3,4.62,7.63,4.62,12.98v20.96c2.38,0,4.14.52,5.28,1.57,1.14,1.04,1.71,2.41,1.71,4.1s-.58,3-1.73,4.04-3.09,1.57-5.8,1.57h-10.18c-2.72,0-4.65-.52-5.81-1.57-1.15-1.05-1.73-2.41-1.73-4.1s.57-3,1.71-4.04c1.14-1.05,2.9-1.57,5.28-1.57v-21.29c0-2.46-.66-4.25-1.98-5.39-1.72-1.47-4.31-2.2-7.76-2.2-2.6,0-4.89.5-6.85,1.51-1.96,1.01-4.45,3.15-7.45,6.41v20.96c2.9,0,4.77.28,5.61.82,1.8,1.1,2.7,2.71,2.7,4.84,0,1.65-.58,3-1.73,4.04-1.15,1.05-3.09,1.57-5.81,1.57h-12.82c-2.71,0-4.65-.52-5.8-1.57-1.16-1.05-1.73-2.41-1.73-4.1,0-2.05.88-3.65,2.64-4.79.88-.55,2.77-.82,5.67-.82v-27.4c-2.38,0-4.14-.53-5.28-1.6-1.14-1.06-1.71-2.42-1.71-4.07s.58-3,1.73-4.04c1.15-1.05,3.09-1.57,5.8-1.57h10.73Z"/><path class="cls-1" d="M910.27,356.28c1.36-1.28,2.75-1.92,4.18-1.92,1.61,0,2.94.58,3.99,1.73,1.05,1.15,1.57,3.07,1.57,5.75v7.26c0,2.71-.52,4.64-1.57,5.78-1.05,1.14-2.41,1.71-4.1,1.71-1.54,0-2.84-.44-3.91-1.32-.77-.66-1.37-2.01-1.81-4.04-.44-2.04-1.5-3.55-3.19-4.54-2.97-1.76-6.76-2.64-11.39-2.64-5.32,0-9.58,1.56-12.79,4.68-3.21,3.12-4.81,7.06-4.81,11.83,0,4.4,1.54,7.88,4.62,10.43,3.08,2.55,8.2,3.82,15.35,3.82,4.69,0,8.53-.48,11.5-1.43,1.76-.59,3.43-1.59,5.01-3,1.58-1.41,3.01-2.12,4.29-2.12,1.54,0,2.87.57,3.99,1.71,1.12,1.14,1.68,2.47,1.68,4.02,0,2.49-1.71,4.86-5.12,7.1-5.06,3.34-12.47,5.01-22.23,5.01-8.77,0-15.59-1.81-20.47-5.45-6.6-4.88-9.9-11.55-9.9-20.03,0-8.03,2.68-14.68,8.03-19.94,5.35-5.26,12.34-7.89,20.96-7.89,3.12,0,6.01.29,8.69.88,2.68.59,5.15,1.47,7.43,2.64Z"/><path class="cls-1" d="M971.17,398.53c0,2.13-.75,3.91-2.26,5.34-1.5,1.43-3.58,2.14-6.22,2.14s-4.71-.71-6.22-2.14c-1.5-1.43-2.26-3.21-2.26-5.34s.75-3.91,2.26-5.34c1.5-1.43,3.58-2.15,6.22-2.15s4.71.72,6.22,2.15c1.5,1.43,2.26,3.21,2.26,5.34Z"/><path class="cls-1" d="M2.01,217.03v-5.16c18.35-.86,23.22-5.16,23.22-23.8v-54.19c0-19.5-.86-34.4-24.66-35.84l-.57-5.45c26.95-5.45,53.33-13.76,79.42-22.36v125.86c.29,10.32,2.87,14.91,13.76,15.48v5.45H2.01ZM106.92,217.03v-5.45c12.61-1.15,13.47-6.02,13.47-17.49v-76.84c0-10.9-2.01-23.22-15.77-23.22-2.87,0-5.73.57-8.32,1.72v-9.46c12.33-9.17,27.24-15.48,42.43-15.48,16.34,0,30.1,6.59,34.69,23.22.86,2.87.86,6.31,1.15,9.46v93.18c0,10.61,3.15,14.05,13.76,14.91v5.45h-81.42ZM201.51,217.03v-5.45c13.19-1.43,13.47-7.74,13.47-19.21v-75.4c0-10.32-1.15-22.94-14.62-22.94-3.15,0-6.02.57-8.6,1.72v-9.46c12.61-9.17,26.66-15.48,42.43-15.48,25.8,0,34.98,17.49,34.98,41v73.68c0,2.29,0,4.59.29,6.88.86,14.34,2.01,18.35,17.2,19.5v5.16h-85.15Z"/><path class="cls-1" d="M424.01,195.25c-14.91,16.91-34.69,24.66-57.05,24.66-42.14,0-78.27-29.53-78.27-73.11s34.12-73.97,75.4-76.55v7.17c-17.49,4.87-18.35,34.69-18.35,49.6h18.35v5.73h-18.35c.86,31.25,14.62,49.6,47.02,49.6,20.36,0,34.69-8.03,45.87-24.94l4.87,2.29c-4.87,12.61-10.32,25.23-19.5,35.55ZM363.52,47.88l-13.47,7.46-1.15-1.15,11.76-14.34c3.15-3.73,6.02-8.03,8.31-12.04,5.45-10.04,11.47-23.51,24.66-23.51,8.32,0,14.91,7.17,14.91,15.48,0,17.49-32.97,21.21-45.01,28.1ZM384.16,132.74v-5.73h12.33v-8.89c0-10.89-.57-34.98-12.33-40.14v-7.74c36.7,2.29,61.36,26.38,66.8,62.5h-66.8Z"/><path class="cls-1" d="M448.36,216.75v-5.45c20.64-1.15,21.22-8.03,21.22-26.38V62.5c0-18.92-1.15-35.27-24.37-36.41l-1.15-5.45c26.95-5.45,53.61-12.33,79.99-20.64v185.21c0,18.35,1.15,25.23,21.22,26.09v5.45h-96.91Z"/><path class="cls-1" d="M630.94,208.15c-11.47,8.6-24.66,11.75-38.71,11.75-19.49,0-43-8.89-43-31.82,0-14.62,9.46-23.22,20.93-29.82,18.92-10.89,40.14-18.06,60.78-24.08v7.45c-14.34,6.59-19.5,16.34-19.5,31.82,0,10.32,2.01,24.66,15.48,24.66,1.43,0,2.58,0,4.02-.57v10.61ZM627.22,78.27c-5.73,0-14.05.29-18.06,4.87-3.73,4.01-4.59,11.47-5.45,16.92-3.44,17.77-13.47,29.24-32.11,29.24-12.04,0-21.79-7.17-21.79-19.78,0-29.53,59.06-34.4,81.14-38.13v7.45c-1.15-.29-2.58-.57-3.73-.57ZM680,220.19c-12.33,0-31.82-3.44-31.82-23.51v-126.15s10.89-.57,16.34-.57c9.46,0,19.49,1.72,27.24,7.74,10.61,8.6,12.04,19.78,12.04,32.4v69.1c0,8.31.57,17.2,11.18,17.2,4.3,0,8.31-1.72,12.04-4.02l3.44,4.02c-14.34,11.75-30.96,23.8-50.46,23.8Z"/><path class="cls-1" d="M729.29,217.03v-5.16c21.5-1.15,23.22-6.59,23.22-26.95v-51.03c0-19.5-.86-34.4-24.66-35.84l-.57-5.45c26.95-6.02,53.33-13.76,79.42-22.36v127.58c0,9.46,4.59,13.19,13.76,13.76v5.45h-91.17ZM837.09,217.03v-5.45c12.61-1.15,13.76-6.31,13.76-17.78,0-24.94.29-49.89.29-75.12,0-10.04-2.01-24.37-15.2-24.37-3.15,0-6.31.86-9.46,2.29v-10.9c12.33-9.75,25.23-14.91,40.71-14.91,11.18,0,23.8,2.87,30.96,12.04,6.59,8.31,6.88,19.78,6.88,30.1v80.85c0,14.05,4.01,17.2,17.49,18.06v5.16h-85.44Z"/><path class="cls-1" d="M956.33,224.77c-14.05-4.59-28.1-12.61-28.1-29.53,0-18.64,16.91-36.7,31.54-44.73-13.76-5.73-25.8-19.5-25.8-35.27,0-36.7,32.4-45.3,61.93-45.87v7.17c-10.9,3.73-11.76,22.08-11.76,31.82,0,11.47-.86,36.12,11.76,41.86v7.45c-9.75-.29-19.5-2.01-28.96-4.87-3.15,2.29-5.16,11.18-5.16,15.19,0,12.9,18.06,13.76,27.24,13.76,17.77,0,35.55-1.43,53.33-1.43,25.52,0,54.76,13.47,54.76,42.72,0,38.71-49.6,63.36-81.14,65.65v-5.73h2.29c15.48.57,44.73-10.89,44.73-30.1,0-16.06-18.64-25.23-31.25-25.23-13.48,0-27.24,1.15-40.71,1.15-7.74,0-15.2-.57-22.65-1.43l-12.04-2.58ZM1063.27,67.37c-15.48,0-20.64-16.06-28.38-16.06s-8.6,11.47-8.6,16.92v1.15c22.08,0,51.61,17.49,51.61,42.72,0,29.53-38.13,44.15-61.93,45.59v-6.88c11.18-3.73,11.76-22.94,11.76-32.68,0-11.18.29-35.55-11.76-41v-7.46h4.3c0-24.37,8.31-50.75,37.27-50.75,14.33,0,27.52,9.75,27.52,25.23,0,12.61-8.89,23.22-21.79,23.22Z"/><path class="cls-1" d="M1222.36,195.25c-14.91,16.91-34.69,24.66-57.05,24.66-42.15,0-78.27-29.53-78.27-73.11s34.12-73.97,75.4-76.55v7.17c-17.49,4.87-18.35,34.69-18.35,49.6h18.35v5.73h-18.35c.57,31.25,14.34,49.6,47.02,49.6,20.36,0,34.4-8.03,45.59-24.94l5.16,2.29c-4.87,12.61-10.61,25.23-19.5,35.55ZM1182.22,132.74v-5.73h12.33v-8.89c0-10.89-.57-34.98-12.33-40.14v-7.74c36.99,2.29,61.64,26.38,66.8,62.5h-66.8Z"/></g></svg>